# xmcd
#
# Track frame offsets:
#	150
#	17560
#	32895
#	46075
#	59975
#	77080
#	91390
#	110935
#	128625
#	147562
#	161255
#	178200
#
# Disc length: 2642 seconds
#
# Revision: 6
# Processed by: cddbd v1.5.2PL0 Copyright (c) Steve Scherf et al.
# Submitted via: audiograbber 1.83.01
#
DISCID=a80a500c
DTITLE=Albert Hammond - It Never Rains In Southern California
DYEAR=2004
DGENRE=Pop
TTITLE0=It Never Rains In Southern California (1972)
TTITLE1=The Free Electric Band (1973)
TTITLE2=Everything I Want To Do (1973)
TTITLE3=Moonlight Lady (1981)
TTITLE4=The Air That I Breathe (1972)
TTITLE5=Down By The River (1972)
TTITLE6=Don't Turn Around (1989)
TTITLE7=Hot Kisses On A Hot Night (1989)
TTITLE8=Through The Eyes Of A Child (1989)
TTITLE9=Half A Million Miles From Home (1974)
TTITLE10=Put A Hold On Your Heart (1989)
TTITLE11=When I Need You (1976)
EXTD=Track dates provided.
EXTT0=
EXTT1=
EXTT2=
EXTT3=
EXTT4=
EXTT5=
EXTT6=
EXTT7=
EXTT8=
EXTT9=
EXTT10=
EXTT11=
PLAYORDER=
